<mxfile host="app.diagrams.net" modified="2024-05-02T20:36:39.407Z" agent="Mozilla/5.0 (Windows NT 10.0; Win64; x64) AppleWebKit/537.36 (KHTML, like Gecko) Chrome/124.0.0.0 Safari/537.36" etag="J-wT_1sW1610AcfEYkrZ" version="24.2.8" type="google">
  <diagram name="Page-1" id="cAaJ6lTeY5esF1sYMo5v">
    <mxGraphModel grid="1" page="1" gridSize="10" guides="1" tooltips="1" connect="1" arrows="1" fold="1" pageScale="1" pageWidth="850" pageHeight="1100" math="0" shadow="0">
      <root>
        <mxCell id="0" />
        <mxCell id="1" parent="0" />
        <mxCell id="1gFPEATudmdzWOuaD5c1-2" value="User" style="swimlane;whiteSpace=wrap;html=1;" vertex="1" parent="1">
          <mxGeometry x="80" y="90" width="220" height="640" as="geometry" />
        </mxCell>
        <mxCell id="1gFPEATudmdzWOuaD5c1-9" style="edgeStyle=orthogonalEdgeStyle;rounded=0;orthogonalLoop=1;jettySize=auto;html=1;exitX=0.5;exitY=1;exitDx=0;exitDy=0;entryX=0.5;entryY=0;entryDx=0;entryDy=0;" edge="1" parent="1gFPEATudmdzWOuaD5c1-2" source="1gFPEATudmdzWOuaD5c1-7" target="1gFPEATudmdzWOuaD5c1-8">
          <mxGeometry relative="1" as="geometry" />
        </mxCell>
        <mxCell id="1gFPEATudmdzWOuaD5c1-7" value="" style="ellipse;whiteSpace=wrap;html=1;aspect=fixed;fillColor=#000000;" vertex="1" parent="1gFPEATudmdzWOuaD5c1-2">
          <mxGeometry x="90" y="40" width="40" height="40" as="geometry" />
        </mxCell>
        <mxCell id="1gFPEATudmdzWOuaD5c1-13" style="edgeStyle=orthogonalEdgeStyle;rounded=0;orthogonalLoop=1;jettySize=auto;html=1;exitX=0.5;exitY=1;exitDx=0;exitDy=0;entryX=0.5;entryY=0;entryDx=0;entryDy=0;" edge="1" parent="1gFPEATudmdzWOuaD5c1-2" source="1gFPEATudmdzWOuaD5c1-8" target="1gFPEATudmdzWOuaD5c1-10">
          <mxGeometry relative="1" as="geometry" />
        </mxCell>
        <mxCell id="1gFPEATudmdzWOuaD5c1-8" value="Starts Program" style="rounded=1;whiteSpace=wrap;html=1;" vertex="1" parent="1gFPEATudmdzWOuaD5c1-2">
          <mxGeometry x="50" y="140" width="120" height="60" as="geometry" />
        </mxCell>
        <mxCell id="1gFPEATudmdzWOuaD5c1-10" value="Select Major Function" style="rounded=1;whiteSpace=wrap;html=1;" vertex="1" parent="1gFPEATudmdzWOuaD5c1-2">
          <mxGeometry x="50" y="240" width="120" height="60" as="geometry" />
        </mxCell>
        <mxCell id="1gFPEATudmdzWOuaD5c1-29" style="edgeStyle=orthogonalEdgeStyle;rounded=0;orthogonalLoop=1;jettySize=auto;html=1;entryX=0.5;entryY=0;entryDx=0;entryDy=0;" edge="1" parent="1gFPEATudmdzWOuaD5c1-2" source="1gFPEATudmdzWOuaD5c1-14" target="1gFPEATudmdzWOuaD5c1-26">
          <mxGeometry relative="1" as="geometry" />
        </mxCell>
        <mxCell id="1gFPEATudmdzWOuaD5c1-30" style="edgeStyle=orthogonalEdgeStyle;rounded=0;orthogonalLoop=1;jettySize=auto;html=1;entryX=0.5;entryY=0;entryDx=0;entryDy=0;" edge="1" parent="1gFPEATudmdzWOuaD5c1-2" source="1gFPEATudmdzWOuaD5c1-14" target="1gFPEATudmdzWOuaD5c1-16">
          <mxGeometry relative="1" as="geometry" />
        </mxCell>
        <mxCell id="1gFPEATudmdzWOuaD5c1-31" style="edgeStyle=orthogonalEdgeStyle;rounded=0;orthogonalLoop=1;jettySize=auto;html=1;entryX=0.5;entryY=0;entryDx=0;entryDy=0;" edge="1" parent="1gFPEATudmdzWOuaD5c1-2" source="1gFPEATudmdzWOuaD5c1-14" target="1gFPEATudmdzWOuaD5c1-15">
          <mxGeometry relative="1" as="geometry" />
        </mxCell>
        <mxCell id="1gFPEATudmdzWOuaD5c1-14" value="" style="html=1;whiteSpace=wrap;aspect=fixed;shape=isoRectangle;" vertex="1" parent="1gFPEATudmdzWOuaD5c1-2">
          <mxGeometry x="93.34" y="320" width="33.33" height="20" as="geometry" />
        </mxCell>
        <mxCell id="1gFPEATudmdzWOuaD5c1-15" value="select IP Scan" style="rounded=1;whiteSpace=wrap;html=1;" vertex="1" parent="1gFPEATudmdzWOuaD5c1-2">
          <mxGeometry x="150" y="370" width="63.34" height="40" as="geometry" />
        </mxCell>
        <mxCell id="1gFPEATudmdzWOuaD5c1-16" value="select Port Scan" style="rounded=1;whiteSpace=wrap;html=1;" vertex="1" parent="1gFPEATudmdzWOuaD5c1-2">
          <mxGeometry x="79.99" y="370" width="60" height="40" as="geometry" />
        </mxCell>
        <mxCell id="1gFPEATudmdzWOuaD5c1-26" value="Select Exploit" style="rounded=1;whiteSpace=wrap;html=1;" vertex="1" parent="1gFPEATudmdzWOuaD5c1-2">
          <mxGeometry x="10.000000000000009" y="370" width="60" height="40" as="geometry" />
        </mxCell>
        <mxCell id="1gFPEATudmdzWOuaD5c1-28" style="edgeStyle=orthogonalEdgeStyle;rounded=0;orthogonalLoop=1;jettySize=auto;html=1;exitX=0.5;exitY=1;exitDx=0;exitDy=0;entryX=0.513;entryY=0.044;entryDx=0;entryDy=0;entryPerimeter=0;endArrow=none;endFill=0;" edge="1" parent="1gFPEATudmdzWOuaD5c1-2" source="1gFPEATudmdzWOuaD5c1-10" target="1gFPEATudmdzWOuaD5c1-14">
          <mxGeometry relative="1" as="geometry" />
        </mxCell>
        <mxCell id="1gFPEATudmdzWOuaD5c1-4" value="Exploit" style="swimlane;whiteSpace=wrap;html=1;" vertex="1" parent="1">
          <mxGeometry x="740" y="90" width="220" height="640" as="geometry" />
        </mxCell>
        <mxCell id="W-6KOr46Y98DBWXeV5AB-33" style="edgeStyle=orthogonalEdgeStyle;rounded=0;orthogonalLoop=1;jettySize=auto;html=1;exitX=0.5;exitY=1;exitDx=0;exitDy=0;entryX=0.5;entryY=0;entryDx=0;entryDy=0;endArrow=none;endFill=0;" edge="1" parent="1gFPEATudmdzWOuaD5c1-4" source="1gFPEATudmdzWOuaD5c1-36" target="W-6KOr46Y98DBWXeV5AB-32">
          <mxGeometry relative="1" as="geometry" />
        </mxCell>
        <mxCell id="1gFPEATudmdzWOuaD5c1-36" value="Check for Previous Scans" style="rounded=1;whiteSpace=wrap;html=1;" vertex="1" parent="1gFPEATudmdzWOuaD5c1-4">
          <mxGeometry x="50" y="80" width="120" height="60" as="geometry" />
        </mxCell>
        <mxCell id="W-6KOr46Y98DBWXeV5AB-38" style="edgeStyle=orthogonalEdgeStyle;rounded=0;orthogonalLoop=1;jettySize=auto;html=1;exitX=0.5;exitY=1;exitDx=0;exitDy=0;entryX=0.5;entryY=0;entryDx=0;entryDy=0;" edge="1" parent="1gFPEATudmdzWOuaD5c1-4" source="W-6KOr46Y98DBWXeV5AB-32" target="W-6KOr46Y98DBWXeV5AB-37">
          <mxGeometry relative="1" as="geometry" />
        </mxCell>
        <mxCell id="W-6KOr46Y98DBWXeV5AB-32" value="" style="rhombus;whiteSpace=wrap;html=1;" vertex="1" parent="1gFPEATudmdzWOuaD5c1-4">
          <mxGeometry x="95" y="160" width="30" height="20" as="geometry" />
        </mxCell>
        <mxCell id="W-6KOr46Y98DBWXeV5AB-35" value="Previous scans not found" style="text;html=1;align=center;verticalAlign=middle;whiteSpace=wrap;rounded=0;" vertex="1" parent="1gFPEATudmdzWOuaD5c1-4">
          <mxGeometry x="30" y="180" width="60" height="30" as="geometry" />
        </mxCell>
        <mxCell id="W-6KOr46Y98DBWXeV5AB-46" style="edgeStyle=orthogonalEdgeStyle;rounded=0;orthogonalLoop=1;jettySize=auto;html=1;exitX=0.5;exitY=1;exitDx=0;exitDy=0;" edge="1" parent="1gFPEATudmdzWOuaD5c1-4" source="W-6KOr46Y98DBWXeV5AB-37" target="W-6KOr46Y98DBWXeV5AB-45">
          <mxGeometry relative="1" as="geometry" />
        </mxCell>
        <mxCell id="W-6KOr46Y98DBWXeV5AB-37" value="Display exploits" style="rounded=1;whiteSpace=wrap;html=1;" vertex="1" parent="1gFPEATudmdzWOuaD5c1-4">
          <mxGeometry x="50" y="230" width="120" height="60" as="geometry" />
        </mxCell>
        <mxCell id="W-6KOr46Y98DBWXeV5AB-49" style="edgeStyle=orthogonalEdgeStyle;rounded=0;orthogonalLoop=1;jettySize=auto;html=1;exitX=0.5;exitY=1;exitDx=0;exitDy=0;entryX=0.5;entryY=0;entryDx=0;entryDy=0;endArrow=none;endFill=0;" edge="1" parent="1gFPEATudmdzWOuaD5c1-4" source="W-6KOr46Y98DBWXeV5AB-45" target="W-6KOr46Y98DBWXeV5AB-48">
          <mxGeometry relative="1" as="geometry" />
        </mxCell>
        <mxCell id="W-6KOr46Y98DBWXeV5AB-45" value="Perform Pen Test" style="rounded=1;whiteSpace=wrap;html=1;" vertex="1" parent="1gFPEATudmdzWOuaD5c1-4">
          <mxGeometry x="50" y="340" width="120" height="60" as="geometry" />
        </mxCell>
        <mxCell id="W-6KOr46Y98DBWXeV5AB-47" value="" style="ellipse;whiteSpace=wrap;html=1;aspect=fixed;fillColor=#33001A;" vertex="1" parent="1gFPEATudmdzWOuaD5c1-4">
          <mxGeometry x="150" y="420" width="20" height="20" as="geometry" />
        </mxCell>
        <mxCell id="W-6KOr46Y98DBWXeV5AB-51" style="edgeStyle=orthogonalEdgeStyle;rounded=0;orthogonalLoop=1;jettySize=auto;html=1;exitX=1;exitY=0.5;exitDx=0;exitDy=0;entryX=0;entryY=0.5;entryDx=0;entryDy=0;" edge="1" parent="1gFPEATudmdzWOuaD5c1-4" source="W-6KOr46Y98DBWXeV5AB-48" target="W-6KOr46Y98DBWXeV5AB-47">
          <mxGeometry relative="1" as="geometry" />
        </mxCell>
        <mxCell id="W-6KOr46Y98DBWXeV5AB-48" value="" style="rhombus;whiteSpace=wrap;html=1;" vertex="1" parent="1gFPEATudmdzWOuaD5c1-4">
          <mxGeometry x="95" y="420" width="30" height="20" as="geometry" />
        </mxCell>
        <mxCell id="W-6KOr46Y98DBWXeV5AB-52" value="Exit this function" style="text;html=1;align=center;verticalAlign=middle;whiteSpace=wrap;rounded=0;" vertex="1" parent="1gFPEATudmdzWOuaD5c1-4">
          <mxGeometry x="125" y="460" width="60" height="30" as="geometry" />
        </mxCell>
        <mxCell id="1gFPEATudmdzWOuaD5c1-5" value="IP Scanner" style="swimlane;whiteSpace=wrap;html=1;startSize=23;" vertex="1" parent="1">
          <mxGeometry x="300" y="90" width="220" height="640" as="geometry" />
        </mxCell>
        <mxCell id="W-6KOr46Y98DBWXeV5AB-2" style="edgeStyle=orthogonalEdgeStyle;rounded=0;orthogonalLoop=1;jettySize=auto;html=1;exitX=0.5;exitY=1;exitDx=0;exitDy=0;entryX=0.5;entryY=0;entryDx=0;entryDy=0;" edge="1" parent="1gFPEATudmdzWOuaD5c1-5" source="1gFPEATudmdzWOuaD5c1-32" target="W-6KOr46Y98DBWXeV5AB-1">
          <mxGeometry relative="1" as="geometry" />
        </mxCell>
        <mxCell id="1gFPEATudmdzWOuaD5c1-32" value="Prompt for Input" style="rounded=1;whiteSpace=wrap;html=1;" vertex="1" parent="1gFPEATudmdzWOuaD5c1-5">
          <mxGeometry x="50" y="80" width="120" height="60" as="geometry" />
        </mxCell>
        <mxCell id="W-6KOr46Y98DBWXeV5AB-4" style="edgeStyle=orthogonalEdgeStyle;rounded=0;orthogonalLoop=1;jettySize=auto;html=1;exitX=0.5;exitY=1;exitDx=0;exitDy=0;entryX=0.5;entryY=0;entryDx=0;entryDy=0;" edge="1" parent="1gFPEATudmdzWOuaD5c1-5" source="W-6KOr46Y98DBWXeV5AB-1" target="W-6KOr46Y98DBWXeV5AB-3">
          <mxGeometry relative="1" as="geometry" />
        </mxCell>
        <mxCell id="W-6KOr46Y98DBWXeV5AB-1" value="Perform Network Scan" style="rounded=1;whiteSpace=wrap;html=1;" vertex="1" parent="1gFPEATudmdzWOuaD5c1-5">
          <mxGeometry x="50" y="190" width="120" height="60" as="geometry" />
        </mxCell>
        <mxCell id="W-6KOr46Y98DBWXeV5AB-7" style="edgeStyle=orthogonalEdgeStyle;rounded=0;orthogonalLoop=1;jettySize=auto;html=1;exitX=0.5;exitY=1;exitDx=0;exitDy=0;entryX=0.5;entryY=0;entryDx=0;entryDy=0;endArrow=none;endFill=0;" edge="1" parent="1gFPEATudmdzWOuaD5c1-5" source="W-6KOr46Y98DBWXeV5AB-3" target="W-6KOr46Y98DBWXeV5AB-5">
          <mxGeometry relative="1" as="geometry" />
        </mxCell>
        <mxCell id="W-6KOr46Y98DBWXeV5AB-3" value="Display Topology" style="rounded=1;whiteSpace=wrap;html=1;" vertex="1" parent="1gFPEATudmdzWOuaD5c1-5">
          <mxGeometry x="50" y="300" width="120" height="60" as="geometry" />
        </mxCell>
        <mxCell id="W-6KOr46Y98DBWXeV5AB-15" style="edgeStyle=orthogonalEdgeStyle;rounded=0;orthogonalLoop=1;jettySize=auto;html=1;exitX=1;exitY=0.5;exitDx=0;exitDy=0;entryX=0;entryY=0.5;entryDx=0;entryDy=0;" edge="1" parent="1gFPEATudmdzWOuaD5c1-5" source="W-6KOr46Y98DBWXeV5AB-5" target="W-6KOr46Y98DBWXeV5AB-10">
          <mxGeometry relative="1" as="geometry" />
        </mxCell>
        <mxCell id="W-6KOr46Y98DBWXeV5AB-21" style="edgeStyle=orthogonalEdgeStyle;rounded=0;orthogonalLoop=1;jettySize=auto;html=1;exitX=0;exitY=0.5;exitDx=0;exitDy=0;entryX=0;entryY=0.75;entryDx=0;entryDy=0;" edge="1" parent="1gFPEATudmdzWOuaD5c1-5" source="W-6KOr46Y98DBWXeV5AB-5" target="1gFPEATudmdzWOuaD5c1-32">
          <mxGeometry relative="1" as="geometry" />
        </mxCell>
        <mxCell id="W-6KOr46Y98DBWXeV5AB-5" value="" style="rhombus;whiteSpace=wrap;html=1;" vertex="1" parent="1gFPEATudmdzWOuaD5c1-5">
          <mxGeometry x="95" y="370" width="30" height="20" as="geometry" />
        </mxCell>
        <mxCell id="W-6KOr46Y98DBWXeV5AB-10" value="" style="ellipse;whiteSpace=wrap;html=1;aspect=fixed;fillColor=#33001A;" vertex="1" parent="1gFPEATudmdzWOuaD5c1-5">
          <mxGeometry x="150" y="370" width="20" height="20" as="geometry" />
        </mxCell>
        <mxCell id="W-6KOr46Y98DBWXeV5AB-13" value="Exit this function" style="text;html=1;align=center;verticalAlign=middle;whiteSpace=wrap;rounded=0;" vertex="1" parent="1gFPEATudmdzWOuaD5c1-5">
          <mxGeometry x="125" y="400" width="60" height="30" as="geometry" />
        </mxCell>
        <mxCell id="W-6KOr46Y98DBWXeV5AB-23" value="Perform another scan" style="text;html=1;align=center;verticalAlign=middle;whiteSpace=wrap;rounded=0;" vertex="1" parent="1gFPEATudmdzWOuaD5c1-5">
          <mxGeometry x="30" y="400" width="60" height="30" as="geometry" />
        </mxCell>
        <mxCell id="1gFPEATudmdzWOuaD5c1-6" value="Port Scanner" style="swimlane;whiteSpace=wrap;html=1;startSize=23;" vertex="1" parent="1">
          <mxGeometry x="520" y="90" width="220" height="640" as="geometry" />
        </mxCell>
        <mxCell id="W-6KOr46Y98DBWXeV5AB-17" style="edgeStyle=orthogonalEdgeStyle;rounded=0;orthogonalLoop=1;jettySize=auto;html=1;exitX=0.5;exitY=1;exitDx=0;exitDy=0;entryX=0.5;entryY=0;entryDx=0;entryDy=0;" edge="1" parent="1gFPEATudmdzWOuaD5c1-6" source="1gFPEATudmdzWOuaD5c1-34" target="W-6KOr46Y98DBWXeV5AB-16">
          <mxGeometry relative="1" as="geometry" />
        </mxCell>
        <mxCell id="1gFPEATudmdzWOuaD5c1-34" value="Prompt for Input" style="rounded=1;whiteSpace=wrap;html=1;" vertex="1" parent="1gFPEATudmdzWOuaD5c1-6">
          <mxGeometry x="50" y="80" width="120" height="60" as="geometry" />
        </mxCell>
        <mxCell id="W-6KOr46Y98DBWXeV5AB-20" style="edgeStyle=orthogonalEdgeStyle;rounded=0;orthogonalLoop=1;jettySize=auto;html=1;exitX=0.5;exitY=1;exitDx=0;exitDy=0;entryX=0.5;entryY=0;entryDx=0;entryDy=0;" edge="1" parent="1gFPEATudmdzWOuaD5c1-6" source="W-6KOr46Y98DBWXeV5AB-16" target="W-6KOr46Y98DBWXeV5AB-19">
          <mxGeometry relative="1" as="geometry" />
        </mxCell>
        <mxCell id="W-6KOr46Y98DBWXeV5AB-16" value="Scan host&#39;s ports" style="rounded=1;whiteSpace=wrap;html=1;" vertex="1" parent="1gFPEATudmdzWOuaD5c1-6">
          <mxGeometry x="50" y="190" width="120" height="60" as="geometry" />
        </mxCell>
        <mxCell id="W-6KOr46Y98DBWXeV5AB-18" style="edgeStyle=orthogonalEdgeStyle;rounded=0;orthogonalLoop=1;jettySize=auto;html=1;exitX=0.5;exitY=1;exitDx=0;exitDy=0;" edge="1" parent="1gFPEATudmdzWOuaD5c1-6" source="W-6KOr46Y98DBWXeV5AB-16" target="W-6KOr46Y98DBWXeV5AB-16">
          <mxGeometry relative="1" as="geometry" />
        </mxCell>
        <mxCell id="W-6KOr46Y98DBWXeV5AB-25" style="edgeStyle=orthogonalEdgeStyle;rounded=0;orthogonalLoop=1;jettySize=auto;html=1;exitX=0.5;exitY=1;exitDx=0;exitDy=0;entryX=0.5;entryY=0;entryDx=0;entryDy=0;endArrow=none;endFill=0;" edge="1" parent="1gFPEATudmdzWOuaD5c1-6" source="W-6KOr46Y98DBWXeV5AB-19" target="W-6KOr46Y98DBWXeV5AB-24">
          <mxGeometry relative="1" as="geometry" />
        </mxCell>
        <mxCell id="W-6KOr46Y98DBWXeV5AB-19" value="Display Ports/Services" style="rounded=1;whiteSpace=wrap;html=1;" vertex="1" parent="1gFPEATudmdzWOuaD5c1-6">
          <mxGeometry x="50" y="300" width="120" height="60" as="geometry" />
        </mxCell>
        <mxCell id="W-6KOr46Y98DBWXeV5AB-27" style="edgeStyle=orthogonalEdgeStyle;rounded=0;orthogonalLoop=1;jettySize=auto;html=1;exitX=1;exitY=0.5;exitDx=0;exitDy=0;" edge="1" parent="1gFPEATudmdzWOuaD5c1-6" source="W-6KOr46Y98DBWXeV5AB-24" target="W-6KOr46Y98DBWXeV5AB-26">
          <mxGeometry relative="1" as="geometry" />
        </mxCell>
        <mxCell id="W-6KOr46Y98DBWXeV5AB-30" style="edgeStyle=orthogonalEdgeStyle;rounded=0;orthogonalLoop=1;jettySize=auto;html=1;exitX=0;exitY=0.5;exitDx=0;exitDy=0;entryX=0;entryY=0.75;entryDx=0;entryDy=0;" edge="1" parent="1gFPEATudmdzWOuaD5c1-6" source="W-6KOr46Y98DBWXeV5AB-24" target="1gFPEATudmdzWOuaD5c1-34">
          <mxGeometry relative="1" as="geometry" />
        </mxCell>
        <mxCell id="W-6KOr46Y98DBWXeV5AB-24" value="" style="rhombus;whiteSpace=wrap;html=1;" vertex="1" parent="1gFPEATudmdzWOuaD5c1-6">
          <mxGeometry x="95" y="370" width="30" height="20" as="geometry" />
        </mxCell>
        <mxCell id="W-6KOr46Y98DBWXeV5AB-26" value="" style="ellipse;whiteSpace=wrap;html=1;aspect=fixed;fillColor=#33001A;" vertex="1" parent="1gFPEATudmdzWOuaD5c1-6">
          <mxGeometry x="150" y="370" width="20" height="20" as="geometry" />
        </mxCell>
        <mxCell id="W-6KOr46Y98DBWXeV5AB-28" value="Exit this function" style="text;html=1;align=center;verticalAlign=middle;whiteSpace=wrap;rounded=0;" vertex="1" parent="1gFPEATudmdzWOuaD5c1-6">
          <mxGeometry x="125" y="400" width="60" height="30" as="geometry" />
        </mxCell>
        <mxCell id="W-6KOr46Y98DBWXeV5AB-29" value="Perform another scan" style="text;html=1;align=center;verticalAlign=middle;whiteSpace=wrap;rounded=0;" vertex="1" parent="1gFPEATudmdzWOuaD5c1-6">
          <mxGeometry x="35" y="400" width="60" height="30" as="geometry" />
        </mxCell>
        <mxCell id="1gFPEATudmdzWOuaD5c1-33" style="edgeStyle=orthogonalEdgeStyle;rounded=0;orthogonalLoop=1;jettySize=auto;html=1;exitX=0.5;exitY=1;exitDx=0;exitDy=0;entryX=0;entryY=0.5;entryDx=0;entryDy=0;" edge="1" parent="1" source="1gFPEATudmdzWOuaD5c1-15" target="1gFPEATudmdzWOuaD5c1-32">
          <mxGeometry relative="1" as="geometry">
            <Array as="points">
              <mxPoint x="262" y="520" />
              <mxPoint x="320" y="520" />
              <mxPoint x="320" y="200" />
            </Array>
          </mxGeometry>
        </mxCell>
        <mxCell id="1gFPEATudmdzWOuaD5c1-35" style="edgeStyle=orthogonalEdgeStyle;rounded=0;orthogonalLoop=1;jettySize=auto;html=1;exitX=0.5;exitY=1;exitDx=0;exitDy=0;entryX=0;entryY=0.5;entryDx=0;entryDy=0;" edge="1" parent="1" source="1gFPEATudmdzWOuaD5c1-16" target="1gFPEATudmdzWOuaD5c1-34">
          <mxGeometry relative="1" as="geometry">
            <Array as="points">
              <mxPoint x="190" y="540" />
              <mxPoint x="540" y="540" />
              <mxPoint x="540" y="200" />
            </Array>
          </mxGeometry>
        </mxCell>
        <mxCell id="1gFPEATudmdzWOuaD5c1-37" style="edgeStyle=orthogonalEdgeStyle;rounded=0;orthogonalLoop=1;jettySize=auto;html=1;exitX=0.5;exitY=1;exitDx=0;exitDy=0;entryX=0;entryY=0.5;entryDx=0;entryDy=0;" edge="1" parent="1" source="1gFPEATudmdzWOuaD5c1-26" target="1gFPEATudmdzWOuaD5c1-36">
          <mxGeometry relative="1" as="geometry">
            <Array as="points">
              <mxPoint x="120" y="560" />
              <mxPoint x="760" y="560" />
              <mxPoint x="760" y="200" />
            </Array>
          </mxGeometry>
        </mxCell>
        <mxCell id="W-6KOr46Y98DBWXeV5AB-34" style="edgeStyle=orthogonalEdgeStyle;rounded=0;orthogonalLoop=1;jettySize=auto;html=1;exitX=0;exitY=0.5;exitDx=0;exitDy=0;entryX=1;entryY=0.5;entryDx=0;entryDy=0;" edge="1" parent="1" source="W-6KOr46Y98DBWXeV5AB-32" target="1gFPEATudmdzWOuaD5c1-34">
          <mxGeometry relative="1" as="geometry">
            <Array as="points">
              <mxPoint x="720" y="260" />
              <mxPoint x="720" y="200" />
            </Array>
          </mxGeometry>
        </mxCell>
        <mxCell id="W-6KOr46Y98DBWXeV5AB-44" style="edgeStyle=orthogonalEdgeStyle;rounded=0;orthogonalLoop=1;jettySize=auto;html=1;exitX=0.5;exitY=1;exitDx=0;exitDy=0;entryX=0;entryY=0.5;entryDx=0;entryDy=0;" edge="1" parent="1" source="W-6KOr46Y98DBWXeV5AB-24" target="W-6KOr46Y98DBWXeV5AB-37">
          <mxGeometry relative="1" as="geometry">
            <Array as="points">
              <mxPoint x="630" y="540" />
              <mxPoint x="718" y="540" />
              <mxPoint x="718" y="350" />
            </Array>
          </mxGeometry>
        </mxCell>
      </root>
    </mxGraphModel>
  </diagram>
</mxfile>
